STARTFONT 2.1
FONT -DotMatrix-Italic-I-Italic--10-10-75-75-c-80-iso10646-1
SIZE 10 75 75
FONTBOUNDINGBOX 11 9 0 -2
STARTPROPERTIES 10
FAMILY_NAME "DotMatrix"
WEIGHT_NAME "Italic"
FONT_VERSION "1.000"
COPYRIGHT "Copyright 2025 The DotMatrix Project Authors (https://github.com/Gissio/font_DotMatrix)"
FOUNDRY "Stefan Schmidt Art"
FONT_ASCENT 8
FONT_DESCENT 2
POINT_SIZE 10
X_HEIGHT 5
CAP_HEIGHT 7
ENDPROPERTIES
CHARS 192
STARTCHAR U+0000
ENCODING 0
SWIDTH 1090 0
DWIDTH 12 0
BBX 9 9 0 -2
BITMAP
AA80
8080
A280
9480
8880
9480
A280
8080
AA80
ENDCHAR
STARTCHAR U+0020
ENCODING 32
SWIDTH 1090 0
DWIDTH 12 0
BBX 0 0 0 0
BITMAP
ENDCHAR
STARTCHAR U+0021
ENCODING 33
SWIDTH 1090 0
DWIDTH 12 0
BBX 7 7 1 0
BITMAP
02
04
08
10
20
00
80
ENDCHAR
STARTCHAR U+0022
ENCODING 34
SWIDTH 1090 0
DWIDTH 12 0
BBX 7 3 1 4
BITMAP
22
44
88
ENDCHAR
STARTCHAR U+0023
ENCODING 35
SWIDTH 1090 0
DWIDTH 12 0
BBX 9 7 0 0
BITMAP
1100
1100
AA80
2200
AA80
4400
4400
ENDCHAR
STARTCHAR U+0024
ENCODING 36
SWIDTH 1090 0
DWIDTH 12 0
BBX 7 7 1 0
BITMAP
08
2A
90
54
12
A8
20
ENDCHAR
STARTCHAR U+0025
ENCODING 37
SWIDTH 1090 0
DWIDTH 12 0
BBX 9 7 0 0
BITMAP
5100
A200
0400
0800
1000
2280
4500
ENDCHAR
STARTCHAR U+0026
ENCODING 38
SWIDTH 1090 0
DWIDTH 12 0
BBX 9 7 0 0
BITMAP
1400
2200
1400
4880
8500
8200
2900
ENDCHAR
STARTCHAR U+0027
ENCODING 39
SWIDTH 1090 0
DWIDTH 12 0
BBX 2 2 4 5
BITMAP
40
80
ENDCHAR
STARTCHAR U+0028
ENCODING 40
SWIDTH 1090 0
DWIDTH 12 0
BBX 5 7 3 0
BITMAP
08
20
40
80
80
80
40
ENDCHAR
STARTCHAR U+0029
ENCODING 41
SWIDTH 1090 0
DWIDTH 12 0
BBX 5 7 1 0
BITMAP
10
08
08
08
10
20
80
ENDCHAR
STARTCHAR U+002A
ENCODING 42
SWIDTH 1090 0
DWIDTH 12 0
BBX 9 5 0 1
BITMAP
2100
1400
AA80
1400
4200
ENDCHAR
STARTCHAR U+002B
ENCODING 43
SWIDTH 1090 0
DWIDTH 12 0
BBX 9 5 0 1
BITMAP
0200
0400
AA80
1000
2000
ENDCHAR
STARTCHAR U+002C
ENCODING 44
SWIDTH 1090 0
DWIDTH 12 0
BBX 5 4 2 -2
BITMAP
28
50
20
80
ENDCHAR
STARTCHAR U+002D
ENCODING 45
SWIDTH 1090 0
DWIDTH 12 0
BBX 9 1 0 3
BITMAP
AA80
ENDCHAR
STARTCHAR U+002E
ENCODING 46
SWIDTH 1090 0
DWIDTH 12 0
BBX 4 2 2 0
BITMAP
50
A0
ENDCHAR
STARTCHAR U+002F
ENCODING 47
SWIDTH 1090 0
DWIDTH 12 0
BBX 7 7 1 0
BITMAP
02
04
08
10
20
40
80
ENDCHAR
STARTCHAR U+0030
ENCODING 48
SWIDTH 1090 0
DWIDTH 12 0
BBX 9 7 0 0
BITMAP
0A00
2080
4080
8080
8100
8200
2800
ENDCHAR
STARTCHAR U+0031
ENCODING 49
SWIDTH 1090 0
DWIDTH 12 0
BBX 6 7 1 0
BITMAP
04
28
08
10
10
20
A8
ENDCHAR
STARTCHAR U+0032
ENCODING 50
SWIDTH 1090 0
DWIDTH 12 0
BBX 9 7 0 0
BITMAP
1500
4080
0080
0200
0800
2000
AA00
ENDCHAR
STARTCHAR U+0033
ENCODING 51
SWIDTH 1090 0
DWIDTH 12 0
BBX 9 7 0 0
BITMAP
2A80
0100
0200
0A00
0100
8100
2A00
ENDCHAR
STARTCHAR U+0034
ENCODING 52
SWIDTH 1090 0
DWIDTH 12 0
BBX 9 7 0 0
BITMAP
0100
0500
1200
4200
AA80
0400
0400
ENDCHAR
STARTCHAR U+0035
ENCODING 53
SWIDTH 1090 0
DWIDTH 12 0
BBX 9 7 0 0
BITMAP
2A80
4000
5400
0100
0100
8200
2800
ENDCHAR
STARTCHAR U+0036
ENCODING 54
SWIDTH 1090 0
DWIDTH 12 0
BBX 8 7 0 0
BITMAP
02
08
20
54
81
81
2A
ENDCHAR
STARTCHAR U+0037
ENCODING 55
SWIDTH 1090 0
DWIDTH 12 0
BBX 9 7 0 0
BITMAP
AA80
0100
0400
0800
1000
2000
4000
ENDCHAR
STARTCHAR U+0038
ENCODING 56
SWIDTH 1090 0
DWIDTH 12 0
BBX 9 7 0 0
BITMAP
1500
4080
4080
2A00
8100
8100
5400
ENDCHAR
STARTCHAR U+0039
ENCODING 57
SWIDTH 1090 0
DWIDTH 12 0
BBX 8 7 0 0
BITMAP
2A
81
81
2A
04
10
40
ENDCHAR
STARTCHAR U+003A
ENCODING 58
SWIDTH 1090 0
DWIDTH 12 0
BBX 5 5 2 0
BITMAP
28
50
00
50
A0
ENDCHAR
STARTCHAR U+003B
ENCODING 59
SWIDTH 1090 0
DWIDTH 12 0
BBX 6 7 2 -2
BITMAP
14
28
00
28
50
20
80
ENDCHAR
STARTCHAR U+003C
ENCODING 60
SWIDTH 1090 0
DWIDTH 12 0
BBX 7 7 1 0
BITMAP
02
08
20
80
40
20
10
ENDCHAR
STARTCHAR U+003D
ENCODING 61
SWIDTH 1090 0
DWIDTH 12 0
BBX 8 3 0 2
BITMAP
55
00
AA
ENDCHAR
STARTCHAR U+003E
ENCODING 62
SWIDTH 1090 0
DWIDTH 12 0
BBX 7 7 1 0
BITMAP
10
08
04
02
08
20
80
ENDCHAR
STARTCHAR U+003F
ENCODING 63
SWIDTH 1090 0
DWIDTH 12 0
BBX 8 7 0 0
BITMAP
2A
81
01
04
10
00
40
ENDCHAR
STARTCHAR U+0040
ENCODING 64
SWIDTH 1090 0
DWIDTH 12 0
BBX 9 7 0 0
BITMAP
1500
2080
4280
8880
8500
8000
2A00
ENDCHAR
STARTCHAR U+0041
ENCODING 65
SWIDTH 1090 0
DWIDTH 12 0
BBX 9 7 0 0
BITMAP
0280
0480
0880
1080
2A80
4080
8080
ENDCHAR
STARTCHAR U+0042
ENCODING 66
SWIDTH 1090 0
DWIDTH 12 0
BBX 9 7 0 0
BITMAP
5500
2080
2080
4A00
4100
8100
AA00
ENDCHAR
STARTCHAR U+0043
ENCODING 67
SWIDTH 1090 0
DWIDTH 12 0
BBX 9 7 0 0
BITMAP
1500
2080
4000
8000
8000
8100
5400
ENDCHAR
STARTCHAR U+0044
ENCODING 68
SWIDTH 1090 0
DWIDTH 12 0
BBX 9 7 0 0
BITMAP
5500
2080
2080
4080
4100
8200
A800
ENDCHAR
STARTCHAR U+0045
ENCODING 69
SWIDTH 1090 0
DWIDTH 12 0
BBX 9 7 0 0
BITMAP
2A80
2000
4000
5400
4000
8000
AA00
ENDCHAR
STARTCHAR U+0046
ENCODING 70
SWIDTH 1090 0
DWIDTH 12 0
BBX 9 7 0 0
BITMAP
2A80
2000
4000
5400
4000
8000
8000
ENDCHAR
STARTCHAR U+0047
ENCODING 71
SWIDTH 1090 0
DWIDTH 12 0
BBX 9 7 0 0
BITMAP
1500
2080
4000
8500
8100
8200
5400
ENDCHAR
STARTCHAR U+0048
ENCODING 72
SWIDTH 1090 0
DWIDTH 12 0
BBX 9 7 0 0
BITMAP
2080
2080
4100
5500
4100
8200
8200
ENDCHAR
STARTCHAR U+0049
ENCODING 73
SWIDTH 1090 0
DWIDTH 12 0
BBX 7 7 1 0
BITMAP
2A
08
08
10
10
20
A8
ENDCHAR
STARTCHAR U+004A
ENCODING 74
SWIDTH 1090 0
DWIDTH 12 0
BBX 9 7 0 0
BITMAP
0A80
0100
0100
0200
8200
8400
5000
ENDCHAR
STARTCHAR U+004B
ENCODING 75
SWIDTH 1090 0
DWIDTH 12 0
BBX 9 7 0 0
BITMAP
2080
2200
4800
5000
4400
8200
8100
ENDCHAR
STARTCHAR U+004C
ENCODING 76
SWIDTH 1090 0
DWIDTH 12 0
BBX 7 7 1 0
BITMAP
10
20
20
40
40
80
AA
ENDCHAR
STARTCHAR U+004D
ENCODING 77
SWIDTH 1090 0
DWIDTH 12 0
BBX 9 7 0 0
BITMAP
2080
2280
4900
4900
4100
8200
8200
ENDCHAR
STARTCHAR U+004E
ENCODING 78
SWIDTH 1090 0
DWIDTH 12 0
BBX 9 7 0 0
BITMAP
2080
2080
5100
4900
4500
8200
8200
ENDCHAR
STARTCHAR U+004F
ENCODING 79
SWIDTH 1090 0
DWIDTH 12 0
BBX 9 7 0 0
BITMAP
1500
2080
4080
4100
8100
8200
5400
ENDCHAR
STARTCHAR U+0050
ENCODING 80
SWIDTH 1090 0
DWIDTH 12 0
BBX 9 7 0 0
BITMAP
1500
2080
2080
5500
4000
8000
8000
ENDCHAR
STARTCHAR U+0051
ENCODING 81
SWIDTH 1090 0
DWIDTH 12 0
BBX 9 7 0 0
BITMAP
0A00
2080
4080
8080
8900
8200
2900
ENDCHAR
STARTCHAR U+0052
ENCODING 82
SWIDTH 1090 0
DWIDTH 12 0
BBX 9 7 0 0
BITMAP
1500
2080
2080
4A00
4400
8200
8100
ENDCHAR
STARTCHAR U+0053
ENCODING 83
SWIDTH 1090 0
DWIDTH 12 0
BBX 9 7 0 0
BITMAP
1500
4080
4000
1400
0100
8100
5400
ENDCHAR
STARTCHAR U+0054
ENCODING 84
SWIDTH 1090 0
DWIDTH 12 0
BBX 9 7 0 0
BITMAP
AA80
0800
0800
1000
1000
2000
2000
ENDCHAR
STARTCHAR U+0055
ENCODING 85
SWIDTH 1090 0
DWIDTH 12 0
BBX 9 7 0 0
BITMAP
2080
2080
4100
4100
8200
8200
5400
ENDCHAR
STARTCHAR U+0056
ENCODING 86
SWIDTH 1090 0
DWIDTH 12 0
BBX 8 7 1 0
BITMAP
81
82
84
88
90
A0
80
ENDCHAR
STARTCHAR U+0057
ENCODING 87
SWIDTH 1090 0
DWIDTH 12 0
BBX 9 7 0 0
BITMAP
2080
2080
4100
4900
5500
A200
8200
ENDCHAR
STARTCHAR U+0058
ENCODING 88
SWIDTH 1090 0
DWIDTH 12 0
BBX 9 7 0 0
BITMAP
4080
2100
1400
0800
2800
4400
8200
ENDCHAR
STARTCHAR U+0059
ENCODING 89
SWIDTH 1090 0
DWIDTH 12 0
BBX 9 7 0 0
BITMAP
8080
4100
2400
1000
1000
2000
2000
ENDCHAR
STARTCHAR U+005A
ENCODING 90
SWIDTH 1090 0
DWIDTH 12 0
BBX 9 7 0 0
BITMAP
2A80
0100
0200
0800
2000
4000
AA00
ENDCHAR
STARTCHAR U+005B
ENCODING 91
SWIDTH 1090 0
DWIDTH 12 0
BBX 8 7 1 0
BITMAP
15
20
20
40
40
80
A8
ENDCHAR
STARTCHAR U+005C
ENCODING 92
SWIDTH 1090 0
DWIDTH 12 0
BBX 4 7 2 0
BITMAP
80
80
40
40
20
20
10
ENDCHAR
STARTCHAR U+005D
ENCODING 93
SWIDTH 1090 0
DWIDTH 12 0
BBX 8 7 0 0
BITMAP
15
02
02
04
04
08
A8
ENDCHAR
STARTCHAR U+005E
ENCODING 94
SWIDTH 1090 0
DWIDTH 12 0
BBX 7 3 1 4
BITMAP
08
24
82
ENDCHAR
STARTCHAR U+005F
ENCODING 95
SWIDTH 1090 0
DWIDTH 12 0
BBX 11 1 0 -2
BITMAP
AAA0
ENDCHAR
STARTCHAR U+0060
ENCODING 96
SWIDTH 1090 0
DWIDTH 12 0
BBX 2 2 3 5
BITMAP
80
40
ENDCHAR
STARTCHAR U+0061
ENCODING 97
SWIDTH 1090 0
DWIDTH 12 0
BBX 8 5 0 0
BITMAP
2A
01
55
82
55
ENDCHAR
STARTCHAR U+0062
ENCODING 98
SWIDTH 1090 0
DWIDTH 12 0
BBX 8 7 0 0
BITMAP
20
20
2A
41
41
82
A8
ENDCHAR
STARTCHAR U+0063
ENCODING 99
SWIDTH 1090 0
DWIDTH 12 0
BBX 8 5 0 0
BITMAP
15
40
80
80
2A
ENDCHAR
STARTCHAR U+0064
ENCODING 100
SWIDTH 1090 0
DWIDTH 12 0
BBX 9 7 0 0
BITMAP
0080
0080
1500
4100
8100
8200
2A00
ENDCHAR
STARTCHAR U+0065
ENCODING 101
SWIDTH 1090 0
DWIDTH 12 0
BBX 8 5 0 0
BITMAP
2A
41
AA
80
54
ENDCHAR
STARTCHAR U+0066
ENCODING 102
SWIDTH 1090 0
DWIDTH 12 0
BBX 9 7 0 0
BITMAP
0280
0800
AA00
1000
1000
2000
2000
ENDCHAR
STARTCHAR U+0067
ENCODING 103
SWIDTH 1090 0
DWIDTH 12 0
BBX 8 7 1 -2
BITMAP
15
41
82
82
54
04
50
ENDCHAR
STARTCHAR U+0068
ENCODING 104
SWIDTH 1090 0
DWIDTH 12 0
BBX 8 7 0 0
BITMAP
20
20
2A
41
41
82
82
ENDCHAR
STARTCHAR U+0069
ENCODING 105
SWIDTH 1090 0
DWIDTH 12 0
BBX 6 7 1 0
BITMAP
04
00
28
10
10
20
A8
ENDCHAR
STARTCHAR U+006A
ENCODING 106
SWIDTH 1090 0
DWIDTH 12 0
BBX 7 8 0 -1
BITMAP
02
00
0A
04
04
08
08
A0
ENDCHAR
STARTCHAR U+006B
ENCODING 107
SWIDTH 1090 0
DWIDTH 12 0
BBX 8 7 0 0
BITMAP
10
20
21
44
50
88
84
ENDCHAR
STARTCHAR U+006C
ENCODING 108
SWIDTH 1090 0
DWIDTH 12 0
BBX 6 7 1 0
BITMAP
14
08
08
10
10
20
A8
ENDCHAR
STARTCHAR U+006D
ENCODING 109
SWIDTH 1090 0
DWIDTH 12 0
BBX 8 5 0 0
BITMAP
AA
49
49
92
92
ENDCHAR
STARTCHAR U+006E
ENCODING 110
SWIDTH 1090 0
DWIDTH 12 0
BBX 7 5 0 0
BITMAP
A8
42
42
84
84
ENDCHAR
STARTCHAR U+006F
ENCODING 111
SWIDTH 1090 0
DWIDTH 12 0
BBX 8 5 0 0
BITMAP
12
41
81
82
48
ENDCHAR
STARTCHAR U+0070
ENCODING 112
SWIDTH 1090 0
DWIDTH 12 0
BBX 8 7 0 -2
BITMAP
2A
21
41
42
54
80
80
ENDCHAR
STARTCHAR U+0071
ENCODING 113
SWIDTH 1090 0
DWIDTH 12 0
BBX 8 7 1 -2
BITMAP
15
41
82
82
54
04
04
ENDCHAR
STARTCHAR U+0072
ENCODING 114
SWIDTH 1090 0
DWIDTH 12 0
BBX 7 5 0 0
BITMAP
4A
50
40
80
80
ENDCHAR
STARTCHAR U+0073
ENCODING 115
SWIDTH 1090 0
DWIDTH 12 0
BBX 8 5 0 0
BITMAP
15
40
14
02
A8
ENDCHAR
STARTCHAR U+0074
ENCODING 116
SWIDTH 1090 0
DWIDTH 12 0
BBX 7 7 1 0
BITMAP
10
10
AA
20
40
40
28
ENDCHAR
STARTCHAR U+0075
ENCODING 117
SWIDTH 1090 0
DWIDTH 12 0
BBX 8 5 0 0
BITMAP
41
41
82
82
55
ENDCHAR
STARTCHAR U+0076
ENCODING 118
SWIDTH 1090 0
DWIDTH 12 0
BBX 7 5 1 0
BITMAP
82
84
88
A0
80
ENDCHAR
STARTCHAR U+0077
ENCODING 119
SWIDTH 1090 0
DWIDTH 12 0
BBX 9 5 0 0
BITMAP
4080
4880
8880
A500
8100
ENDCHAR
STARTCHAR U+0078
ENCODING 120
SWIDTH 1090 0
DWIDTH 12 0
BBX 9 5 0 0
BITMAP
2080
1200
0800
2400
8200
ENDCHAR
STARTCHAR U+0079
ENCODING 121
SWIDTH 1090 0
DWIDTH 12 0
BBX 8 7 1 -2
BITMAP
81
42
24
08
10
20
40
ENDCHAR
STARTCHAR U+007A
ENCODING 122
SWIDTH 1090 0
DWIDTH 12 0
BBX 9 5 0 0
BITMAP
2A80
0200
0800
2000
AA00
ENDCHAR
STARTCHAR U+007B
ENCODING 123
SWIDTH 1090 0
DWIDTH 12 0
BBX 7 7 1 0
BITMAP
0A
10
10
A0
20
40
28
ENDCHAR
STARTCHAR U+007C
ENCODING 124
SWIDTH 1090 0
DWIDTH 12 0
BBX 6 7 1 0
BITMAP
04
08
10
00
20
40
80
ENDCHAR
STARTCHAR U+007D
ENCODING 125
SWIDTH 1090 0
DWIDTH 12 0
BBX 7 7 1 0
BITMAP
28
04
08
0A
10
10
A0
ENDCHAR
STARTCHAR U+007E
ENCODING 126
SWIDTH 1090 0
DWIDTH 12 0
BBX 9 3 0 4
BITMAP
5000
8880
0500
ENDCHAR
STARTCHAR U+00A0
ENCODING 160
SWIDTH 1090 0
DWIDTH 12 0
BBX 0 0 0 0
BITMAP
ENDCHAR
STARTCHAR U+00A1
ENCODING 161
SWIDTH 1090 0
DWIDTH 12 0
BBX 7 8 1 -1
BITMAP
02
00
00
08
10
20
40
80
ENDCHAR
STARTCHAR U+00A2
ENCODING 162
SWIDTH 1090 0
DWIDTH 12 0
BBX 8 6 0 0
BITMAP
02
15
44
88
2A
10
ENDCHAR
STARTCHAR U+00A3
ENCODING 163
SWIDTH 1090 0
DWIDTH 12 0
BBX 9 7 0 0
BITMAP
0500
1080
1000
AA00
2000
2000
AA00
ENDCHAR
STARTCHAR U+00A4
ENCODING 164
SWIDTH 1090 0
DWIDTH 12 0
BBX 9 7 0 0
BITMAP
1080
0A00
2100
4100
4200
2800
8400
ENDCHAR
STARTCHAR U+00A5
ENCODING 165
SWIDTH 1090 0
DWIDTH 12 0
BBX 9 7 0 0
BITMAP
2080
1200
5500
0800
AA00
1000
1000
ENDCHAR
STARTCHAR U+00A6
ENCODING 166
SWIDTH 1090 0
DWIDTH 12 0
BBX 6 7 1 0
BITMAP
04
08
10
00
20
40
80
ENDCHAR
STARTCHAR U+00A7
ENCODING 167
SWIDTH 1090 0
DWIDTH 12 0
BBX 9 7 0 0
BITMAP
0A80
2000
2A00
4100
2A00
0200
A800
ENDCHAR
STARTCHAR U+00A8
ENCODING 168
SWIDTH 1090 0
DWIDTH 12 0
BBX 5 1 2 6
BITMAP
88
ENDCHAR
STARTCHAR U+00A9
ENCODING 169
SWIDTH 1090 0
DWIDTH 12 0
BBX 9 8 0 -1
BITMAP
2A00
4100
9480
A080
A080
9480
4100
2A00
ENDCHAR
STARTCHAR U+00AA
ENCODING 170
SWIDTH 1090 0
DWIDTH 12 0
BBX 9 7 0 0
BITMAP
2A00
0100
5500
8200
5500
0000
AA80
ENDCHAR
STARTCHAR U+00AB
ENCODING 171
SWIDTH 1090 0
DWIDTH 12 0
BBX 6 5 2 1
BITMAP
24
48
90
48
24
ENDCHAR
STARTCHAR U+00AC
ENCODING 172
SWIDTH 1090 0
DWIDTH 12 0
BBX 9 3 0 1
BITMAP
AA80
0100
0100
ENDCHAR
STARTCHAR U+00AD
ENCODING 173
SWIDTH 1090 0
DWIDTH 12 0
BBX 9 1 0 3
BITMAP
AA80
ENDCHAR
STARTCHAR U+00AE
ENCODING 174
SWIDTH 1090 0
DWIDTH 12 0
BBX 9 8 0 -1
BITMAP
2A00
4100
A880
A280
A880
A280
4100
2A00
ENDCHAR
STARTCHAR U+00AF
ENCODING 175
SWIDTH 1090 0
DWIDTH 12 0
BBX 9 1 0 6
BITMAP
AA80
ENDCHAR
STARTCHAR U+00B0
ENCODING 176
SWIDTH 1090 0
DWIDTH 12 0
BBX 5 3 2 4
BITMAP
50
88
50
ENDCHAR
STARTCHAR U+00B1
ENCODING 177
SWIDTH 1090 0
DWIDTH 12 0
BBX 9 7 0 0
BITMAP
0200
0400
AA80
1000
2000
0000
AA80
ENDCHAR
STARTCHAR U+00B2
ENCODING 178
SWIDTH 1090 0
DWIDTH 12 0
BBX 6 5 1 2
BITMAP
28
44
10
40
A8
ENDCHAR
STARTCHAR U+00B3
ENCODING 179
SWIDTH 1090 0
DWIDTH 12 0
BBX 6 5 1 2
BITMAP
28
04
10
08
A0
ENDCHAR
STARTCHAR U+00B4
ENCODING 180
SWIDTH 1090 0
DWIDTH 12 0
BBX 2 2 4 5
BITMAP
40
80
ENDCHAR
STARTCHAR U+00B5
ENCODING 181
SWIDTH 1090 0
DWIDTH 12 0
BBX 9 7 0 -2
BITMAP
2080
2080
4100
4100
5480
8000
8000
ENDCHAR
STARTCHAR U+00B6
ENCODING 182
SWIDTH 1090 0
DWIDTH 12 0
BBX 9 7 0 0
BITMAP
2A80
8900
8900
5200
1200
2400
2400
ENDCHAR
STARTCHAR U+00B7
ENCODING 183
SWIDTH 1090 0
DWIDTH 12 0
BBX 1 1 4 3
BITMAP
80
ENDCHAR
STARTCHAR U+00B8
ENCODING 184
SWIDTH 1090 0
DWIDTH 12 0
BBX 4 2 2 -2
BITMAP
10
A0
ENDCHAR
STARTCHAR U+00B9
ENCODING 185
SWIDTH 1090 0
DWIDTH 12 0
BBX 5 5 1 2
BITMAP
08
28
10
10
A8
ENDCHAR
STARTCHAR U+00BA
ENCODING 186
SWIDTH 1090 0
DWIDTH 12 0
BBX 9 7 0 0
BITMAP
1200
4100
8100
8200
4800
0000
AA80
ENDCHAR
STARTCHAR U+00BB
ENCODING 187
SWIDTH 1090 0
DWIDTH 12 0
BBX 6 5 1 1
BITMAP
90
48
24
48
90
ENDCHAR
STARTCHAR U+00BC
ENCODING 188
SWIDTH 1090 0
DWIDTH 12 0
BBX 9 8 0 -1
BITMAP
2000
A000
2080
2200
0880
2280
8A80
0080
ENDCHAR
STARTCHAR U+00BD
ENCODING 189
SWIDTH 1090 0
DWIDTH 12 0
BBX 9 8 0 -1
BITMAP
2000
A000
2080
2200
0A00
2080
8200
0A80
ENDCHAR
STARTCHAR U+00BE
ENCODING 190
SWIDTH 1090 0
DWIDTH 12 0
BBX 9 8 0 -1
BITMAP
A800
2000
0880
A200
0880
2280
8A80
0080
ENDCHAR
STARTCHAR U+00BF
ENCODING 191
SWIDTH 1090 0
DWIDTH 12 0
BBX 8 8 0 -1
BITMAP
02
00
04
08
20
80
81
54
ENDCHAR
STARTCHAR U+00C0
ENCODING 192
SWIDTH 1090 0
DWIDTH 12 0
BBX 8 7 0 0
BITMAP
08
04
05
11
21
55
81
ENDCHAR
STARTCHAR U+00C1
ENCODING 193
SWIDTH 1090 0
DWIDTH 12 0
BBX 8 7 0 0
BITMAP
02
04
05
11
21
55
81
ENDCHAR
STARTCHAR U+00C2
ENCODING 194
SWIDTH 1090 0
DWIDTH 12 0
BBX 9 7 0 0
BITMAP
0A00
2080
0500
1100
2100
5500
8100
ENDCHAR
STARTCHAR U+00C3
ENCODING 195
SWIDTH 1090 0
DWIDTH 12 0
BBX 9 7 0 0
BITMAP
2880
4500
0500
1100
2100
5500
8100
ENDCHAR
STARTCHAR U+00C4
ENCODING 196
SWIDTH 1090 0
DWIDTH 12 0
BBX 9 7 0 0
BITMAP
0880
0000
0500
1100
2100
5500
8100
ENDCHAR
STARTCHAR U+00C5
ENCODING 197
SWIDTH 1090 0
DWIDTH 12 0
BBX 9 7 0 0
BITMAP
0500
0880
0500
1100
2100
5500
8100
ENDCHAR
STARTCHAR U+00C6
ENCODING 198
SWIDTH 1090 0
DWIDTH 12 0
BBX 9 7 0 0
BITMAP
1280
2400
4400
5500
8800
8800
8A80
ENDCHAR
STARTCHAR U+00C7
ENCODING 199
SWIDTH 1090 0
DWIDTH 12 0
BBX 9 8 0 -1
BITMAP
1500
4080
8000
8000
8100
5400
1000
A000
ENDCHAR
STARTCHAR U+00C8
ENCODING 200
SWIDTH 1090 0
DWIDTH 12 0
BBX 9 7 0 0
BITMAP
0800
0400
2A80
4000
5400
8000
AA00
ENDCHAR
STARTCHAR U+00C9
ENCODING 201
SWIDTH 1090 0
DWIDTH 12 0
BBX 9 7 0 0
BITMAP
0100
0400
2A80
4000
5400
8000
AA00
ENDCHAR
STARTCHAR U+00CA
ENCODING 202
SWIDTH 1090 0
DWIDTH 12 0
BBX 9 7 0 0
BITMAP
0A00
2080
2A80
4000
5400
8000
AA00
ENDCHAR
STARTCHAR U+00CB
ENCODING 203
SWIDTH 1090 0
DWIDTH 12 0
BBX 9 7 0 0
BITMAP
0880
0000
2A80
4000
5400
8000
AA00
ENDCHAR
STARTCHAR U+00CC
ENCODING 204
SWIDTH 1090 0
DWIDTH 12 0
BBX 7 7 1 0
BITMAP
10
08
2A
10
10
20
A8
ENDCHAR
STARTCHAR U+00CD
ENCODING 205
SWIDTH 1090 0
DWIDTH 12 0
BBX 7 7 1 0
BITMAP
04
08
2A
10
10
20
A8
ENDCHAR
STARTCHAR U+00CE
ENCODING 206
SWIDTH 1090 0
DWIDTH 12 0
BBX 8 7 1 0
BITMAP
14
41
2A
10
10
20
A8
ENDCHAR
STARTCHAR U+00CF
ENCODING 207
SWIDTH 1090 0
DWIDTH 12 0
BBX 8 7 1 0
BITMAP
11
00
2A
10
10
20
A8
ENDCHAR
STARTCHAR U+00D0
ENCODING 208
SWIDTH 1090 0
DWIDTH 12 0
BBX 9 7 0 0
BITMAP
5500
2080
2080
A880
4100
8200
A800
ENDCHAR
STARTCHAR U+00D1
ENCODING 209
SWIDTH 1090 0
DWIDTH 12 0
BBX 9 7 0 0
BITMAP
2880
4500
0000
4100
5100
8A00
8200
ENDCHAR
STARTCHAR U+00D2
ENCODING 210
SWIDTH 1090 0
DWIDTH 12 0
BBX 9 7 0 0
BITMAP
0800
0400
1500
4080
8080
8100
5400
ENDCHAR
STARTCHAR U+00D3
ENCODING 211
SWIDTH 1090 0
DWIDTH 12 0
BBX 9 7 0 0
BITMAP
0200
0400
1500
4080
8080
8100
5400
ENDCHAR
STARTCHAR U+00D4
ENCODING 212
SWIDTH 1090 0
DWIDTH 12 0
BBX 9 7 0 0
BITMAP
0A00
2080
1500
4080
8080
8100
5400
ENDCHAR
STARTCHAR U+00D5
ENCODING 213
SWIDTH 1090 0
DWIDTH 12 0
BBX 9 7 0 0
BITMAP
2880
4500
1500
4080
8080
8100
5400
ENDCHAR
STARTCHAR U+00D6
ENCODING 214
SWIDTH 1090 0
DWIDTH 12 0
BBX 9 7 0 0
BITMAP
1100
0000
1500
4080
8080
8100
5400
ENDCHAR
STARTCHAR U+00D7
ENCODING 215
SWIDTH 1090 0
DWIDTH 12 0
BBX 9 5 0 1
BITMAP
2080
1200
0800
2400
8200
ENDCHAR
STARTCHAR U+00D8
ENCODING 216
SWIDTH 1090 0
DWIDTH 12 0
BBX 9 7 0 0
BITMAP
0A80
2100
4480
8880
9100
4200
A800
ENDCHAR
STARTCHAR U+00D9
ENCODING 217
SWIDTH 1090 0
DWIDTH 12 0
BBX 9 7 0 0
BITMAP
0800
0400
4080
4080
8100
8100
5400
ENDCHAR
STARTCHAR U+00DA
ENCODING 218
SWIDTH 1090 0
DWIDTH 12 0
BBX 9 7 0 0
BITMAP
0200
0400
4080
4080
8100
8100
5400
ENDCHAR
STARTCHAR U+00DB
ENCODING 219
SWIDTH 1090 0
DWIDTH 12 0
BBX 9 7 0 0
BITMAP
0A00
2080
0000
4080
8100
8100
5400
ENDCHAR
STARTCHAR U+00DC
ENCODING 220
SWIDTH 1090 0
DWIDTH 12 0
BBX 9 7 0 0
BITMAP
1100
0000
4080
4080
8100
8100
5400
ENDCHAR
STARTCHAR U+00DD
ENCODING 221
SWIDTH 1090 0
DWIDTH 12 0
BBX 7 7 1 0
BITMAP
08
10
82
48
20
20
40
ENDCHAR
STARTCHAR U+00DE
ENCODING 222
SWIDTH 1090 0
DWIDTH 12 0
BBX 8 7 0 0
BITMAP
10
2A
21
41
42
54
80
ENDCHAR
STARTCHAR U+00DF
ENCODING 223
SWIDTH 1090 0
DWIDTH 12 0
BBX 8 7 0 0
BITMAP
0A
21
21
44
41
81
8A
ENDCHAR
STARTCHAR U+00E0
ENCODING 224
SWIDTH 1090 0
DWIDTH 12 0
BBX 8 7 0 0
BITMAP
10
08
2A
01
55
82
55
ENDCHAR
STARTCHAR U+00E1
ENCODING 225
SWIDTH 1090 0
DWIDTH 12 0
BBX 8 7 0 0
BITMAP
04
08
2A
01
55
82
55
ENDCHAR
STARTCHAR U+00E2
ENCODING 226
SWIDTH 1090 0
DWIDTH 12 0
BBX 9 7 0 0
BITMAP
0A00
2080
2A00
0100
5500
8200
5500
ENDCHAR
STARTCHAR U+00E3
ENCODING 227
SWIDTH 1090 0
DWIDTH 12 0
BBX 9 7 0 0
BITMAP
2880
4500
2A00
0100
5500
8200
5500
ENDCHAR
STARTCHAR U+00E4
ENCODING 228
SWIDTH 1090 0
DWIDTH 12 0
BBX 8 7 0 0
BITMAP
11
00
2A
01
55
82
55
ENDCHAR
STARTCHAR U+00E5
ENCODING 229
SWIDTH 1090 0
DWIDTH 12 0
BBX 8 7 0 0
BITMAP
04
00
2A
01
55
82
55
ENDCHAR
STARTCHAR U+00E6
ENCODING 230
SWIDTH 1090 0
DWIDTH 12 0
BBX 9 5 0 0
BITMAP
5500
0880
2A00
8800
5500
ENDCHAR
STARTCHAR U+00E7
ENCODING 231
SWIDTH 1090 0
DWIDTH 12 0
BBX 8 7 1 -2
BITMAP
15
40
80
80
2A
08
50
ENDCHAR
STARTCHAR U+00E8
ENCODING 232
SWIDTH 1090 0
DWIDTH 12 0
BBX 8 7 0 0
BITMAP
10
08
2A
41
AA
80
54
ENDCHAR
STARTCHAR U+00E9
ENCODING 233
SWIDTH 1090 0
DWIDTH 12 0
BBX 8 7 0 0
BITMAP
02
08
2A
41
AA
80
54
ENDCHAR
STARTCHAR U+00EA
ENCODING 234
SWIDTH 1090 0
DWIDTH 12 0
BBX 8 7 0 0
BITMAP
14
41
2A
41
AA
80
54
ENDCHAR
STARTCHAR U+00EB
ENCODING 235
SWIDTH 1090 0
DWIDTH 12 0
BBX 8 7 0 0
BITMAP
11
00
2A
41
AA
80
54
ENDCHAR
STARTCHAR U+00EC
ENCODING 236
SWIDTH 1090 0
DWIDTH 12 0
BBX 5 7 1 0
BITMAP
10
08
28
10
10
20
A8
ENDCHAR
STARTCHAR U+00ED
ENCODING 237
SWIDTH 1090 0
DWIDTH 12 0
BBX 6 7 1 0
BITMAP
04
08
28
10
10
20
A8
ENDCHAR
STARTCHAR U+00EE
ENCODING 238
SWIDTH 1090 0
DWIDTH 12 0
BBX 9 7 1 0
BITMAP
0A00
2080
2800
1000
1000
2000
A800
ENDCHAR
STARTCHAR U+00EF
ENCODING 239
SWIDTH 1090 0
DWIDTH 12 0
BBX 8 7 1 0
BITMAP
11
00
28
10
10
20
A8
ENDCHAR
STARTCHAR U+00F0
ENCODING 240
SWIDTH 1090 0
DWIDTH 12 0
BBX 9 7 0 0
BITMAP
2880
0200
1500
4100
8100
8200
2800
ENDCHAR
STARTCHAR U+00F1
ENCODING 241
SWIDTH 1090 0
DWIDTH 12 0
BBX 9 7 0 0
BITMAP
2880
4500
A800
4200
4200
8400
8400
ENDCHAR
STARTCHAR U+00F2
ENCODING 242
SWIDTH 1090 0
DWIDTH 12 0
BBX 8 7 0 0
BITMAP
10
08
12
41
81
82
48
ENDCHAR
STARTCHAR U+00F3
ENCODING 243
SWIDTH 1090 0
DWIDTH 12 0
BBX 8 7 0 0
BITMAP
04
08
12
41
81
82
48
ENDCHAR
STARTCHAR U+00F4
ENCODING 244
SWIDTH 1090 0
DWIDTH 12 0
BBX 9 7 0 0
BITMAP
0A00
2080
1200
4100
8100
8200
4800
ENDCHAR
STARTCHAR U+00F5
ENCODING 245
SWIDTH 1090 0
DWIDTH 12 0
BBX 9 7 0 0
BITMAP
2880
4500
1200
4100
8100
8200
4800
ENDCHAR
STARTCHAR U+00F6
ENCODING 246
SWIDTH 1090 0
DWIDTH 12 0
BBX 8 7 0 0
BITMAP
11
00
12
41
81
82
48
ENDCHAR
STARTCHAR U+00F7
ENCODING 247
SWIDTH 1090 0
DWIDTH 12 0
BBX 9 5 0 1
BITMAP
0400
0000
AA80
0000
1000
ENDCHAR
STARTCHAR U+00F8
ENCODING 248
SWIDTH 1090 0
DWIDTH 12 0
BBX 8 7 0 -1
BITMAP
02
14
49
91
92
28
40
ENDCHAR
STARTCHAR U+00F9
ENCODING 249
SWIDTH 1090 0
DWIDTH 12 0
BBX 8 7 0 0
BITMAP
10
08
41
41
82
82
55
ENDCHAR
STARTCHAR U+00FA
ENCODING 250
SWIDTH 1090 0
DWIDTH 12 0
BBX 8 7 0 0
BITMAP
04
08
41
41
82
82
55
ENDCHAR
STARTCHAR U+00FB
ENCODING 251
SWIDTH 1090 0
DWIDTH 12 0
BBX 9 7 0 0
BITMAP
0A00
2080
0000
4100
8200
8200
5500
ENDCHAR
STARTCHAR U+00FC
ENCODING 252
SWIDTH 1090 0
DWIDTH 12 0
BBX 8 7 0 0
BITMAP
11
00
41
41
82
82
55
ENDCHAR
STARTCHAR U+00FD
ENCODING 253
SWIDTH 1090 0
DWIDTH 12 0
BBX 8 8 1 -1
BITMAP
08
10
81
42
24
08
10
20
ENDCHAR
STARTCHAR U+00FE
ENCODING 254
SWIDTH 1090 0
DWIDTH 12 0
BBX 8 8 0 -1
BITMAP
10
20
2A
41
42
54
80
80
ENDCHAR
STARTCHAR U+00FF
ENCODING 255
SWIDTH 1090 0
DWIDTH 12 0
BBX 8 8 1 -1
BITMAP
44
00
81
42
24
08
10
20
ENDCHAR
ENDFONT
